<svg width="149" height="34" viewBox="0 0 149 34" fill="none" xmlns="http://www.w3.org/2000/svg">
<path d="M15.3673 10.9991C12.6334 11.6355 10.606 14.11 10.606 17.0064C10.606 19.943 12.6841 22.489 15.5513 23.0582L15.5513 23.0582L15.5565 23.0591C15.5874 23.0646 15.6255 23.0696 15.6664 23.0696C15.9418 23.0696 16.1892 22.8769 16.2449 22.5948C16.309 22.2751 16.1018 21.9632 15.7805 21.9008L15.7328 22.1462L15.7815 21.901C13.4678 21.441 11.7858 19.3824 11.7858 17.0064C11.7858 14.9094 13.102 13.0835 14.9644 12.3564C14.8795 12.569 14.9234 12.8211 15.0969 12.9933C15.2118 13.108 15.3623 13.1657 15.5136 13.1657C15.6652 13.1657 15.8158 13.1078 15.9308 12.9928L15.9311 12.9925L17.0597 11.86C17.0598 11.8599 17.0599 11.8598 17.06 11.8597C17.2901 11.6293 17.29 11.2576 17.06 11.0272L17.06 11.0273L16.8829 11.2037L17.0597 11.027L15.3673 10.9991ZM15.3673 10.9991L15.0938 10.7244C15.0937 10.7243 15.0937 10.7243 15.0936 10.7242C14.8632 10.4936 14.8643 10.1189 15.0982 9.89099L15.3673 10.9991Z" fill="#10B981" stroke="#10B981" stroke-width="0.5"/>
<path d="M18.1248 12.0811L18.1246 12.0811C17.8047 12.0235 17.5903 11.7175 17.6481 11.3964L17.6481 11.3964C17.7055 11.077 18.0098 10.862 18.3325 10.9196L18.3326 10.9196C21.2656 11.4447 23.3941 13.9994 23.3941 16.9936C23.3941 19.8901 21.3666 22.3646 18.6327 23.001L18.9061 23.2755C18.9061 23.2756 18.9062 23.2757 18.9063 23.2758L18.9064 23.2759L18.7293 23.4523C18.8621 23.5851 18.8608 23.8003 18.7266 23.9304L18.1248 12.0811ZM18.1248 12.0811C20.4934 12.5045 22.2141 14.57 22.2141 16.9935M18.1248 12.0811L22.2141 16.9935M22.2141 16.9935C22.2141 19.0917 20.8979 20.9167 19.0354 21.6436M22.2141 16.9935L19.0354 21.6436M19.0354 21.6436C19.1203 21.4311 19.0766 21.1793 18.9034 21.0071C18.673 20.7766 18.2992 20.7765 18.0686 21.0089C18.0685 21.009 18.0683 21.0091 18.0682 21.0093L16.9402 22.1413C16.9401 22.1414 16.94 22.1415 16.9399 22.1416L19.0354 21.6436ZM18.4862 24.28C18.6354 24.28 18.7869 24.223 18.9021 24.1085L16.9401 22.9743L18.0688 24.1069L18.0691 24.1072C18.1844 24.2225 18.3365 24.28 18.4862 24.28ZM18.7942 21.7305L18.728 21.6647L18.7939 21.7306L18.7942 21.7305Z" fill="#10B981" stroke="#10B981" stroke-width="0.5"/>
<path d="M24.61 8.95096L24.6096 8.95151C24.0927 9.66875 23.3768 9.95711 22.6829 9.95711C22.2081 9.95711 21.746 9.82373 21.3611 9.60419C20.4289 9.07423 19.6592 7.86458 20.2607 6.48112C20.3025 6.38462 20.3503 6.28753 20.4042 6.19273L24.61 8.95096ZM24.61 8.95096C24.6719 8.86461 24.7298 8.77496 24.7834 8.68064L24.7836 8.68042M24.61 8.95096L24.7836 8.68042M24.7836 8.68042C25.2925 7.78412 25.2677 6.73878 25.126 5.93349C24.9833 5.12254 24.7147 4.5127 24.6898 4.45658L24.6898 4.45658M24.7836 8.68042L24.6898 4.45658M24.6898 4.45658L24.6892 4.45511M24.6898 4.45658L24.6892 4.45511M24.6892 4.45511C24.5835 4.22073 24.3404 4.08188 24.0833 4.11165L24.6892 4.45511ZM21.3437 6.95001L21.344 6.94935C21.3693 6.89071 21.3985 6.83206 21.4308 6.77323C21.6979 6.30445 22.1734 5.96883 22.6797 5.73366C23.0763 5.54944 23.4749 5.43463 23.7688 5.36664C23.8607 5.65401 23.9662 6.05522 24.0111 6.49013C24.0683 7.0458 24.0234 7.62647 23.7566 8.09589C23.7236 8.15366 23.6884 8.20883 23.651 8.26147C23.2028 8.88398 22.4893 8.88767 21.9447 8.57747L21.9442 8.57718C21.4009 8.26938 21.0376 7.6539 21.3437 6.95001ZM24.0832 4.11167C24.0201 4.11896 23.359 4.20026 22.5898 4.49235C21.8252 4.78271 20.914 5.29641 20.4043 6.19266L24.0832 4.11167Z" fill="#10B981" stroke="#10B981" stroke-width="0.5"/>
<path d="M9.51846 8.9141L9.51846 8.91409C9.45812 8.8313 9.39765 8.74237 9.34214 8.64888L9.34143 8.64769L9.34143 8.64768C8.82014 7.75851 8.83079 6.71262 8.96152 5.90528C9.09317 5.09234 9.35349 4.47874 9.37795 4.42194L9.37847 4.42073L9.37847 4.42073C9.48268 4.18217 9.72693 4.04591 9.97684 4.06863L9.97973 4.06889L9.97972 4.0689C10.0416 4.07525 10.7042 4.14748 11.4779 4.42935C12.2461 4.70922 13.1637 5.2103 13.6851 6.09907C13.7405 6.19245 13.7899 6.28843 13.8334 6.38559C14.4539 7.76271 13.7006 8.98135 12.7757 9.52421L9.51846 8.9141ZM9.51846 8.9141L9.51959 8.91562M9.51846 8.9141L9.51959 8.91562M9.51959 8.91562C10.0364 9.6136 10.7418 9.89605 11.4258 9.89605M9.51959 8.91562L11.4258 9.89605M11.4258 9.89605C11.9117 9.89605 12.3854 9.75373 12.7756 9.52427L11.4258 9.89605ZM12.6684 6.69671L12.6684 6.69671L12.669 6.69757C12.7022 6.75378 12.7312 6.81055 12.7585 6.8709C13.0731 7.57024 12.719 8.19001 12.1797 8.50758C11.6398 8.8248 10.9257 8.83094 10.4687 8.21319L10.4687 8.21319L10.4677 8.21188C10.4299 8.16154 10.394 8.10719 10.3614 8.0513L10.361 8.0506C10.0872 7.58466 10.0341 7.00434 10.0837 6.44767C10.1226 6.01207 10.2226 5.60938 10.3107 5.32076C10.6055 5.3848 11.0056 5.4941 11.4046 5.67282C11.9146 5.90122 12.3951 6.2307 12.6684 6.69671Z" fill="#10B981" stroke="#10B981" stroke-width="0.5"/>
<path d="M7.22948 19.4357L7.22838 19.4358C7.12454 19.4472 7.01695 19.4545 6.9063 19.4545H6.88788H6.8877V19.2045L7.22948 19.4357ZM7.22948 19.4357C8.73066 19.2644 9.39211 17.9925 9.38489 16.9198M7.22948 19.4357L9.38489 16.9198M9.38489 16.9198C9.37765 15.8469 8.69817 14.5854 7.19584 14.4335L9.38489 16.9198ZM6.86572 14.4188C6.86399 14.4188 6.86204 14.419 6.85988 14.4191L7.19575 14.4335C7.09674 14.4235 6.99757 14.4192 6.89861 14.419C6.89788 14.4189 6.89718 14.4189 6.89661 14.4189C6.89271 14.4187 6.88059 14.418 6.86572 14.4188ZM6.88163 15.5989L6.8842 15.5989C6.94677 15.5978 7.01053 15.6011 7.07442 15.6081L7.07442 15.6081L7.07659 15.6083C7.83933 15.6848 8.20021 16.3018 8.20491 16.9286C8.20957 17.5549 7.85768 18.1764 7.09629 18.2641C7.02961 18.2714 6.96491 18.2758 6.90098 18.2758H6.8877C6.35023 18.2758 5.82362 18.0306 5.36858 17.7099C5.01266 17.459 4.71551 17.1725 4.51079 16.9531C4.71244 16.7298 5.00646 16.4379 5.36062 16.1817C5.81288 15.8546 6.33918 15.603 6.88163 15.5989Z" fill="#10B981" stroke="#10B981" stroke-width="0.5"/>
<path d="M9.31091 29.5448L9.31074 29.5445C9.28518 29.4876 9.01666 28.8778 8.87423 28.0667C8.73275 27.261 8.70829 26.215 9.21793 25.3181L9.21803 25.318C9.27171 25.2236 9.32958 25.134 9.39146 25.0476L9.39172 25.0473C10.2734 23.8216 11.7063 23.8643 12.6387 24.3942C13.5712 24.9242 14.3408 26.1338 13.7393 27.5187L9.31091 29.5448ZM9.31091 29.5448C9.40742 29.7586 9.61918 29.8925 9.8482 29.8925M9.31091 29.5448L9.8482 29.8925M9.8482 29.8925C9.84883 29.8925 9.84959 29.8925 9.85047 29.8925M9.8482 29.8925L9.85047 29.8925M9.85047 29.8925C9.86133 29.8926 9.89059 29.8927 9.92407 29.8873M9.85047 29.8925L9.92407 29.8873M9.92407 29.8873C10.0194 29.8759 10.6639 29.7909 11.4102 29.5075C12.1748 29.2171 13.086 28.7034 13.5958 27.8072L9.92407 29.8873ZM12.0539 25.4213L12.0543 25.4215C12.599 25.7306 12.9611 26.346 12.655 27.0501L12.6547 27.0508C12.6294 27.1094 12.6002 27.168 12.5678 27.2269C12.3008 27.6957 11.8252 28.0313 11.319 28.2664C10.9224 28.4507 10.5238 28.5655 10.23 28.6335C10.1381 28.3461 10.0328 27.9446 9.98815 27.5094C9.93106 26.9534 9.97598 26.3723 10.2421 25.9028C10.2751 25.8451 10.3103 25.79 10.3476 25.7375C10.6181 25.363 10.9709 25.2203 11.3224 25.2203C11.5749 25.2203 11.8315 25.2945 12.0539 25.4213ZM13.5958 27.8071C13.6497 27.7123 13.6975 27.6153 13.7393 27.5188L13.5958 27.8071Z" fill="#10B981" stroke="#10B981" stroke-width="0.5"/>
<path d="M24.0179 29.9307C24.0435 29.9334 24.0658 29.9334 24.077 29.9334L24.079 29.9334C24.3123 29.9334 24.5258 29.7975 24.6206 29.5781L24.6206 29.5779C24.6451 29.5211 24.9054 28.9075 25.0371 28.0945C25.1678 27.2872 25.1785 26.2413 24.6572 25.3521L24.6572 25.3521L24.6565 25.3509C24.602 25.2591 24.5428 25.1696 24.4788 25.0837C23.5794 23.8705 22.1483 23.9324 21.2231 24.4753C20.298 25.0182 19.5445 26.2372 20.1654 27.6147L20.3934 27.5119M24.0179 29.9307C23.95 29.9236 23.2903 29.8507 22.5208 29.5703C21.7526 29.2904 20.8349 28.7894 20.3135 27.9006C20.2581 27.8072 20.2087 27.7112 20.1652 27.6141L20.3934 27.5119M24.0179 29.9307C24.0175 29.9306 24.0172 29.9306 24.0168 29.9305L24.0444 29.6821L24.0189 29.9308C24.0186 29.9307 24.0182 29.9307 24.0179 29.9307ZM20.3934 27.5119C19.8395 26.2834 20.5009 25.189 21.3496 24.691C22.1983 24.1929 23.4759 24.1504 24.2781 25.2329C24.3366 25.3112 24.391 25.3936 24.4415 25.4786C25.3977 27.1096 24.4322 29.3834 24.391 29.479L20.5288 27.7736C20.4784 27.6885 20.4332 27.6009 20.3934 27.5119ZM21.3315 27.3032L21.3315 27.3032C21.6048 27.7693 22.0854 28.0987 22.5953 28.3271C22.9943 28.5059 23.3945 28.6152 23.6893 28.6792C23.7773 28.3906 23.8774 27.9879 23.9162 27.5523C23.9659 26.9956 23.9128 26.4153 23.6389 25.9494L23.6385 25.9487C23.6059 25.8928 23.57 25.8384 23.5323 25.7881L23.5313 25.7868L23.5313 25.7868C23.0745 25.1694 22.3607 25.1762 21.8202 25.4924C21.2809 25.81 20.9269 26.4298 21.2416 27.1292L21.3315 27.3032ZM21.3315 27.3032L21.331 27.3024M21.3315 27.3032L21.331 27.3024M21.331 27.3024C21.2978 27.2462 21.2688 27.1895 21.2416 27.1292L21.331 27.3024Z" fill="#10B981" stroke="#10B981" stroke-width="0.5"/>
<path d="M24.6165 17.0782C24.6094 16.0056 25.2709 14.7339 26.7719 14.5627L26.773 14.5626L26.773 14.5626C26.8765 14.5512 26.9837 14.5439 27.094 14.5438M24.6165 17.0782L27.0951 14.7938M24.6165 17.0782C24.6165 17.0783 24.6165 17.0784 24.6165 17.0786L24.8665 17.0769L24.6165 17.0782ZM27.094 14.5438C27.0943 14.5438 27.0947 14.5438 27.0951 14.5438V14.7938M27.094 14.5438C27.0936 14.5438 27.0932 14.5438 27.0928 14.5438L27.0951 14.7938M27.094 14.5438C28.1184 14.5348 29.0185 15.0672 29.653 15.5841C30.2924 16.105 30.6965 16.6382 30.7339 16.6883L30.7351 16.6899L30.7351 16.69C30.8859 16.8955 30.8898 17.1766 30.7373 17.3856M27.0951 14.7938C28.973 14.7765 30.4711 16.7541 30.5335 16.8378C30.6212 16.9573 30.6225 17.1194 30.5349 17.2389M30.7373 17.3856C30.7375 17.3853 30.7377 17.385 30.738 17.3846L30.5349 17.2389M30.7373 17.3856C30.737 17.386 30.7367 17.3864 30.7365 17.3867L30.5349 17.2389M30.7373 17.3856C30.6963 17.4426 30.3035 17.9769 29.6766 18.5026C29.05 19.028 28.157 19.5721 27.1261 19.5793L30.5349 17.2389M26.9257 18.3915L26.9257 18.3915L26.9235 18.3913C26.1608 18.3148 25.7999 17.6978 25.7952 17.0709C25.7905 16.4457 26.1426 15.8233 26.9036 15.7368C26.9703 15.7295 27.0351 15.7251 27.0991 15.7251H27.1124C27.6498 15.7251 28.1764 15.9702 28.6315 16.291C28.9872 16.5418 29.2842 16.8281 29.4889 17.0474C29.2868 17.2707 28.9928 17.5625 28.6389 17.8185C28.187 18.1456 27.6615 18.3969 27.1195 18.4006C27.0498 18.4006 26.9866 18.3981 26.9257 18.3915Z" fill="#10B981" stroke="#10B981" stroke-width="0.5"/>
<path d="M16.9999 6.73513C17.3252 6.73513 17.5899 6.47047 17.5899 6.14513V3.7399C17.5899 3.41457 17.3252 3.1499 16.9999 3.1499C16.6746 3.1499 16.4099 3.41457 16.4099 3.7399V6.14513C16.4099 6.47047 16.6746 6.73513 16.9999 6.73513Z" fill="#10B981" stroke="#10B981" stroke-width="0.5"/>
<path d="M7.30465 12.0845L7.3051 12.0848C7.39763 12.138 7.4993 12.1632 7.59972 12.1632C7.80292 12.1632 8.00049 12.0571 8.11032 11.8695L8.11064 11.869C8.27501 11.5865 8.17714 11.225 7.8948 11.0619C7.89477 11.0619 7.89475 11.0619 7.89472 11.0619L5.8123 9.85861L5.8122 9.85855C5.5278 9.69439 5.16888 9.79487 5.00631 10.0741C4.84188 10.3566 4.93983 10.7182 5.22215 10.8812C5.22217 10.8812 5.2222 10.8813 5.22222 10.8813L7.30465 12.0845Z" fill="#10B981" stroke="#10B981" stroke-width="0.5"/>
<path d="M5.00629 23.9259L5.00661 23.9264C5.11644 24.114 5.31401 24.2201 5.51721 24.2201C5.6158 24.2201 5.71888 24.1951 5.81182 24.1417L5.81228 24.1414L7.89478 22.9381L7.89546 22.9377C8.17625 22.7743 8.27249 22.4155 8.11183 22.1332L8.11184 22.1332L8.11063 22.1311C7.94741 21.8506 7.58642 21.7531 7.30433 21.917C7.30421 21.9171 7.30409 21.9172 7.30396 21.9172L5.22276 23.1198C4.93894 23.2819 4.84237 23.6442 5.00629 23.9259Z" fill="#10B981" stroke="#10B981" stroke-width="0.5"/>
<path d="M17.5899 30.26V27.8547C17.5899 27.5294 17.3252 27.2647 16.9999 27.2647C16.6746 27.2647 16.4099 27.5294 16.4099 27.8547V30.26C16.4099 30.5853 16.6746 30.85 16.9999 30.85C17.3252 30.85 17.5899 30.5853 17.5899 30.26Z" fill="#10B981" stroke="#10B981" stroke-width="0.5"/>
<path d="M28.1877 24.1427L28.1876 24.1428L28.1946 24.1466C28.2841 24.1946 28.383 24.2201 28.4828 24.2201C28.686 24.2201 28.8835 24.114 28.9934 23.9264L28.9937 23.9258C29.1581 23.6434 29.0602 23.2818 28.7778 23.1187L28.7777 23.1187L26.6952 21.9168C26.6952 21.9168 26.6952 21.9168 26.6952 21.9168C26.4121 21.7534 26.0524 21.8504 25.8891 22.1328C25.7251 22.4151 25.823 22.7764 26.1052 22.9394C26.1052 22.9395 26.1052 22.9395 26.1053 22.9395L28.1877 24.1427Z" fill="#10B981" stroke="#10B981" stroke-width="0.5"/>
<path d="M26.695 12.0848L26.6954 12.0846L28.7778 10.8813C28.7779 10.8813 28.7779 10.8813 28.7779 10.8813C29.0603 10.7182 29.1581 10.3566 28.9938 10.0742C28.8314 9.79522 28.4711 9.69406 28.1875 9.85881C28.1874 9.85888 28.1872 9.85895 28.1871 9.85903L26.1053 11.0619L26.1053 11.0619L26.1046 11.0623C25.8238 11.2257 25.7276 11.5846 25.8882 11.8669L25.8882 11.8669L25.8898 11.8695C25.9996 12.0572 26.1972 12.1632 26.4004 12.1632C26.499 12.1632 26.602 12.1383 26.695 12.0848Z" fill="#10B981" stroke="#10B981" stroke-width="0.5"/>
<path d="M46.382 14.168C45.598 14.168 44.8467 14.0653 44.128 13.86C43.4093 13.6453 42.8307 13.37 42.392 13.034L43.162 11.326C43.582 11.6247 44.0767 11.872 44.646 12.068C45.2247 12.2547 45.808 12.348 46.396 12.348C46.844 12.348 47.2033 12.306 47.474 12.222C47.754 12.1287 47.9593 12.0027 48.09 11.844C48.2207 11.6853 48.286 11.5033 48.286 11.298C48.286 11.0367 48.1833 10.8313 47.978 10.682C47.7727 10.5233 47.502 10.3973 47.166 10.304C46.83 10.2013 46.4567 10.108 46.046 10.024C45.6447 9.93067 45.2387 9.81867 44.828 9.688C44.4267 9.55733 44.058 9.38933 43.722 9.184C43.386 8.97867 43.1107 8.708 42.896 8.372C42.6907 8.036 42.588 7.60667 42.588 7.084C42.588 6.524 42.7373 6.01533 43.036 5.558C43.344 5.09133 43.8013 4.72267 44.408 4.452C45.024 4.172 45.794 4.032 46.718 4.032C47.334 4.032 47.9407 4.10667 48.538 4.256C49.1353 4.396 49.6627 4.61067 50.12 4.9L49.42 6.622C48.9627 6.36067 48.5053 6.16933 48.048 6.048C47.5907 5.91733 47.1427 5.852 46.704 5.852C46.2653 5.852 45.906 5.90333 45.626 6.006C45.346 6.10867 45.1453 6.244 45.024 6.412C44.9027 6.57067 44.842 6.75733 44.842 6.972C44.842 7.224 44.9447 7.42933 45.15 7.588C45.3553 7.73733 45.626 7.85867 45.962 7.952C46.298 8.04533 46.6667 8.13867 47.068 8.232C47.4787 8.32533 47.8847 8.43267 48.286 8.554C48.6967 8.67533 49.07 8.83867 49.406 9.044C49.742 9.24933 50.0127 9.52 50.218 9.856C50.4327 10.192 50.54 10.6167 50.54 11.13C50.54 11.6807 50.386 12.1847 50.078 12.642C49.77 13.0993 49.308 13.468 48.692 13.748C48.0853 14.028 47.3153 14.168 46.382 14.168ZM55.0157 14.112C54.1291 14.112 53.4384 13.888 52.9437 13.44C52.4491 12.9827 52.2017 12.306 52.2017 11.41V4.802H54.3857V11.382C54.3857 11.6993 54.4697 11.9467 54.6377 12.124C54.8057 12.292 55.0344 12.376 55.3237 12.376C55.6691 12.376 55.9631 12.2827 56.2057 12.096L56.7937 13.636C56.5697 13.7947 56.2991 13.916 55.9817 14C55.6737 14.0747 55.3517 14.112 55.0157 14.112ZM51.0397 8.316V6.636H56.2617V8.316H51.0397ZM61.5253 14.112C60.6666 14.112 59.9106 13.944 59.2573 13.608C58.6133 13.272 58.114 12.8147 57.7593 12.236C57.4046 11.648 57.2273 10.9807 57.2273 10.234C57.2273 9.478 57.4 8.81067 57.7453 8.232C58.1 7.644 58.5806 7.18667 59.1873 6.86C59.794 6.524 60.48 6.356 61.2453 6.356C61.9826 6.356 62.6453 6.51467 63.2333 6.832C63.8306 7.14 64.302 7.588 64.6473 8.176C64.9926 8.75467 65.1653 9.45 65.1653 10.262C65.1653 10.346 65.1606 10.444 65.1513 10.556C65.142 10.6587 65.1326 10.7567 65.1233 10.85H59.0053V9.576H63.9753L63.1353 9.954C63.1353 9.562 63.056 9.22133 62.8973 8.932C62.7386 8.64267 62.5193 8.41867 62.2393 8.26C61.9593 8.092 61.6326 8.008 61.2593 8.008C60.886 8.008 60.5546 8.092 60.2653 8.26C59.9853 8.41867 59.766 8.64733 59.6073 8.946C59.4486 9.23533 59.3693 9.58067 59.3693 9.982V10.318C59.3693 10.7287 59.458 11.0927 59.6353 11.41C59.822 11.718 60.0786 11.956 60.4053 12.124C60.7413 12.2827 61.1333 12.362 61.5813 12.362C61.9826 12.362 62.3326 12.3013 62.6313 12.18C62.9393 12.0587 63.2193 11.8767 63.4713 11.634L64.6333 12.894C64.288 13.286 63.854 13.5893 63.3313 13.804C62.8086 14.0093 62.2066 14.112 61.5253 14.112ZM76.2653 6.356C76.8627 6.356 77.39 6.47733 77.8473 6.72C78.314 6.95333 78.678 7.31733 78.9393 7.812C79.21 8.29733 79.3453 8.92267 79.3453 9.688V14H77.1613V10.024C77.1613 9.41733 77.0353 8.96933 76.7833 8.68C76.5313 8.39067 76.1767 8.246 75.7193 8.246C75.402 8.246 75.1173 8.32067 74.8653 8.47C74.6133 8.61 74.4173 8.82467 74.2773 9.114C74.1373 9.40333 74.0673 9.772 74.0673 10.22V14H71.8833V10.024C71.8833 9.41733 71.7573 8.96933 71.5053 8.68C71.2627 8.39067 70.9127 8.246 70.4553 8.246C70.138 8.246 69.8533 8.32067 69.6013 8.47C69.3493 8.61 69.1533 8.82467 69.0133 9.114C68.8733 9.40333 68.8033 9.772 68.8033 10.22V14H66.6193V6.468H68.7053V8.526L68.3133 7.924C68.5747 7.41067 68.9433 7.02333 69.4193 6.762C69.9047 6.49133 70.4553 6.356 71.0713 6.356C71.762 6.356 72.364 6.53333 72.8773 6.888C73.4 7.23333 73.7453 7.76533 73.9133 8.484L73.1433 8.274C73.3953 7.686 73.7967 7.21933 74.3473 6.874C74.9073 6.52867 75.5467 6.356 76.2653 6.356ZM85.7549 14.112C85.1203 14.112 84.5649 13.972 84.0889 13.692C83.6129 13.412 83.2396 12.9873 82.9689 12.418C82.7076 11.8393 82.5769 11.1113 82.5769 10.234C82.5769 9.34733 82.7029 8.61933 82.9549 8.05C83.2069 7.48067 83.5709 7.056 84.0469 6.776C84.5229 6.496 85.0923 6.356 85.7549 6.356C86.4643 6.356 87.0989 6.51933 87.6589 6.846C88.2283 7.16333 88.6763 7.61133 89.0029 8.19C89.3389 8.76867 89.5069 9.45 89.5069 10.234C89.5069 11.0273 89.3389 11.7133 89.0029 12.292C88.6763 12.8707 88.2283 13.3187 87.6589 13.636C87.0989 13.9533 86.4643 14.112 85.7549 14.112ZM81.3029 16.716V6.468H83.3889V8.008L83.3469 10.248L83.4869 12.474V16.716H81.3029ZM85.3769 12.32C85.7409 12.32 86.0629 12.236 86.3429 12.068C86.6323 11.9 86.8609 11.662 87.0289 11.354C87.2063 11.0367 87.2949 10.6633 87.2949 10.234C87.2949 9.79533 87.2063 9.422 87.0289 9.114C86.8609 8.806 86.6323 8.568 86.3429 8.4C86.0629 8.232 85.7409 8.148 85.3769 8.148C85.0129 8.148 84.6863 8.232 84.3969 8.4C84.1076 8.568 83.8789 8.806 83.7109 9.114C83.5429 9.422 83.4589 9.79533 83.4589 10.234C83.4589 10.6633 83.5429 11.0367 83.7109 11.354C83.8789 11.662 84.1076 11.9 84.3969 12.068C84.6863 12.236 85.0129 12.32 85.3769 12.32ZM92.2369 14V6.048H89.1009V4.2H97.6409V6.048H94.5049V14H92.2369ZM101.526 14.112C100.723 14.112 100.009 13.944 99.3836 13.608C98.7676 13.272 98.2776 12.8147 97.9136 12.236C97.5589 11.648 97.3816 10.9807 97.3816 10.234C97.3816 9.478 97.5589 8.81067 97.9136 8.232C98.2776 7.644 98.7676 7.18667 99.3836 6.86C100.009 6.524 100.723 6.356 101.526 6.356C102.319 6.356 103.028 6.524 103.654 6.86C104.279 7.18667 104.769 7.63933 105.124 8.218C105.478 8.79667 105.656 9.46867 105.656 10.234C105.656 10.9807 105.478 11.648 105.124 12.236C104.769 12.8147 104.279 13.272 103.654 13.608C103.028 13.944 102.319 14.112 101.526 14.112ZM101.526 12.32C101.89 12.32 102.216 12.236 102.506 12.068C102.795 11.9 103.024 11.662 103.192 11.354C103.36 11.0367 103.444 10.6633 103.444 10.234C103.444 9.79533 103.36 9.422 103.192 9.114C103.024 8.806 102.795 8.568 102.506 8.4C102.216 8.232 101.89 8.148 101.526 8.148C101.162 8.148 100.835 8.232 100.546 8.4C100.256 8.568 100.023 8.806 99.8456 9.114C99.6776 9.422 99.5936 9.79533 99.5936 10.234C99.5936 10.6633 99.6776 11.0367 99.8456 11.354C100.023 11.662 100.256 11.9 100.546 12.068C100.835 12.236 101.162 12.32 101.526 12.32ZM110.699 14.112C109.897 14.112 109.183 13.944 108.557 13.608C107.941 13.272 107.451 12.8147 107.087 12.236C106.733 11.648 106.555 10.9807 106.555 10.234C106.555 9.478 106.733 8.81067 107.087 8.232C107.451 7.644 107.941 7.18667 108.557 6.86C109.183 6.524 109.897 6.356 110.699 6.356C111.493 6.356 112.202 6.524 112.827 6.86C113.453 7.18667 113.943 7.63933 114.297 8.218C114.652 8.79667 114.829 9.46867 114.829 10.234C114.829 10.9807 114.652 11.648 114.297 12.236C113.943 12.8147 113.453 13.272 112.827 13.608C112.202 13.944 111.493 14.112 110.699 14.112ZM110.699 12.32C111.063 12.32 111.39 12.236 111.679 12.068C111.969 11.9 112.197 11.662 112.365 11.354C112.533 11.0367 112.617 10.6633 112.617 10.234C112.617 9.79533 112.533 9.422 112.365 9.114C112.197 8.806 111.969 8.568 111.679 8.4C111.39 8.232 111.063 8.148 110.699 8.148C110.335 8.148 110.009 8.232 109.719 8.4C109.43 8.568 109.197 8.806 109.019 9.114C108.851 9.422 108.767 9.79533 108.767 10.234C108.767 10.6633 108.851 11.0367 109.019 11.354C109.197 11.662 109.43 11.9 109.719 12.068C110.009 12.236 110.335 12.32 110.699 12.32ZM116.289 14V3.612H118.473V14H116.289Z" fill="#1E293B"/>
<path d="M43.162 31V21.2H47.404C48.2813 21.2 49.0373 21.3447 49.672 21.634C50.3067 21.914 50.7967 22.32 51.142 22.852C51.4873 23.384 51.66 24.0187 51.66 24.756C51.66 25.484 51.4873 26.114 51.142 26.646C50.7967 27.178 50.3067 27.5887 49.672 27.878C49.0373 28.158 48.2813 28.298 47.404 28.298H44.422L45.43 27.276V31H43.162ZM45.43 27.528L44.422 26.45H47.278C47.978 26.45 48.5007 26.3007 48.846 26.002C49.1913 25.7033 49.364 25.288 49.364 24.756C49.364 24.2147 49.1913 23.7947 48.846 23.496C48.5007 23.1973 47.978 23.048 47.278 23.048H44.422L45.43 21.97V27.528ZM56.8495 31.112C55.9908 31.112 55.2348 30.944 54.5815 30.608C53.9375 30.272 53.4382 29.8147 53.0835 29.236C52.7288 28.648 52.5515 27.9807 52.5515 27.234C52.5515 26.478 52.7242 25.8107 53.0695 25.232C53.4242 24.644 53.9048 24.1867 54.5115 23.86C55.1182 23.524 55.8042 23.356 56.5695 23.356C57.3068 23.356 57.9695 23.5147 58.5575 23.832C59.1548 24.14 59.6262 24.588 59.9715 25.176C60.3168 25.7547 60.4895 26.45 60.4895 27.262C60.4895 27.346 60.4848 27.444 60.4755 27.556C60.4662 27.6587 60.4568 27.7567 60.4475 27.85H54.3295V26.576H59.2995L58.4595 26.954C58.4595 26.562 58.3802 26.2213 58.2215 25.932C58.0628 25.6427 57.8435 25.4187 57.5635 25.26C57.2835 25.092 56.9568 25.008 56.5835 25.008C56.2102 25.008 55.8788 25.092 55.5895 25.26C55.3095 25.4187 55.0902 25.6473 54.9315 25.946C54.7728 26.2353 54.6935 26.5807 54.6935 26.982V27.318C54.6935 27.7287 54.7822 28.0927 54.9595 28.41C55.1462 28.718 55.4028 28.956 55.7295 29.124C56.0655 29.2827 56.4575 29.362 56.9055 29.362C57.3068 29.362 57.6568 29.3013 57.9555 29.18C58.2635 29.0587 58.5435 28.8767 58.7955 28.634L59.9575 29.894C59.6122 30.286 59.1782 30.5893 58.6555 30.804C58.1328 31.0093 57.5308 31.112 56.8495 31.112ZM65.6815 31.112C64.8229 31.112 64.0669 30.944 63.4135 30.608C62.7695 30.272 62.2702 29.8147 61.9155 29.236C61.5609 28.648 61.3835 27.9807 61.3835 27.234C61.3835 26.478 61.5562 25.8107 61.9015 25.232C62.2562 24.644 62.7369 24.1867 63.3435 23.86C63.9502 23.524 64.6362 23.356 65.4015 23.356C66.1389 23.356 66.8015 23.5147 67.3895 23.832C67.9869 24.14 68.4582 24.588 68.8035 25.176C69.1489 25.7547 69.3215 26.45 69.3215 27.262C69.3215 27.346 69.3169 27.444 69.3075 27.556C69.2982 27.6587 69.2889 27.7567 69.2795 27.85H63.1615V26.576H68.1315L67.2915 26.954C67.2915 26.562 67.2122 26.2213 67.0535 25.932C66.8949 25.6427 66.6755 25.4187 66.3955 25.26C66.1155 25.092 65.7889 25.008 65.4155 25.008C65.0422 25.008 64.7109 25.092 64.4215 25.26C64.1415 25.4187 63.9222 25.6473 63.7635 25.946C63.6049 26.2353 63.5255 26.5807 63.5255 26.982V27.318C63.5255 27.7287 63.6142 28.0927 63.7915 28.41C63.9782 28.718 64.2349 28.956 64.5615 29.124C64.8975 29.2827 65.2895 29.362 65.7375 29.362C66.1389 29.362 66.4889 29.3013 66.7875 29.18C67.0955 29.0587 67.3755 28.8767 67.6275 28.634L68.7895 29.894C68.4442 30.286 68.0102 30.5893 67.4875 30.804C66.9649 31.0093 66.3629 31.112 65.6815 31.112ZM75.3536 23.356C75.9509 23.356 76.4829 23.4773 76.9496 23.72C77.4256 23.9533 77.7989 24.3173 78.0696 24.812C78.3402 25.2973 78.4756 25.9227 78.4756 26.688V31H76.2916V27.024C76.2916 26.4173 76.1562 25.9693 75.8856 25.68C75.6242 25.3907 75.2509 25.246 74.7656 25.246C74.4202 25.246 74.1076 25.3207 73.8276 25.47C73.5569 25.61 73.3422 25.8293 73.1836 26.128C73.0342 26.4267 72.9596 26.8093 72.9596 27.276V31H70.7756V23.468H72.8616V25.554L72.4696 24.924C72.7402 24.42 73.1276 24.0327 73.6316 23.762C74.1356 23.4913 74.7096 23.356 75.3536 23.356ZM84.248 31.112C83.3893 31.112 82.6333 30.944 81.98 30.608C81.336 30.272 80.8366 29.8147 80.482 29.236C80.1273 28.648 79.95 27.9807 79.95 27.234C79.95 26.478 80.1226 25.8107 80.468 25.232C80.8226 24.644 81.3033 24.1867 81.91 23.86C82.5166 23.524 83.2026 23.356 83.968 23.356C84.7053 23.356 85.368 23.5147 85.956 23.832C86.5533 24.14 87.0246 24.588 87.37 25.176C87.7153 25.7547 87.888 26.45 87.888 27.262C87.888 27.346 87.8833 27.444 87.874 27.556C87.8646 27.6587 87.8553 27.7567 87.846 27.85H81.728V26.576H86.698L85.858 26.954C85.858 26.562 85.7786 26.2213 85.62 25.932C85.4613 25.6427 85.242 25.4187 84.962 25.26C84.682 25.092 84.3553 25.008 83.982 25.008C83.6086 25.008 83.2773 25.092 82.988 25.26C82.708 25.4187 82.4886 25.6473 82.33 25.946C82.1713 26.2353 82.092 26.5807 82.092 26.982V27.318C82.092 27.7287 82.1806 28.0927 82.358 28.41C82.5446 28.718 82.8013 28.956 83.128 29.124C83.464 29.2827 83.856 29.362 84.304 29.362C84.7053 29.362 85.0553 29.3013 85.354 29.18C85.662 29.0587 85.942 28.8767 86.194 28.634L87.356 29.894C87.0106 30.286 86.5766 30.5893 86.054 30.804C85.5313 31.0093 84.9293 31.112 84.248 31.112ZM92.422 31.112C91.5353 31.112 90.8447 30.888 90.35 30.44C89.8553 29.9827 89.608 29.306 89.608 28.41V21.802H91.792V28.382C91.792 28.6993 91.876 28.9467 92.044 29.124C92.212 29.292 92.4407 29.376 92.73 29.376C93.0753 29.376 93.3693 29.2827 93.612 29.096L94.2 30.636C93.976 30.7947 93.7053 30.916 93.388 31C93.08 31.0747 92.758 31.112 92.422 31.112ZM88.446 25.316V23.636H93.668V25.316H88.446ZM100.046 31V29.53L99.906 29.208V26.576C99.906 26.1093 99.7613 25.7453 99.472 25.484C99.192 25.2227 98.758 25.092 98.17 25.092C97.7686 25.092 97.372 25.1573 96.98 25.288C96.5973 25.4093 96.2706 25.5773 96 25.792L95.216 24.266C95.6266 23.9767 96.1213 23.7527 96.7 23.594C97.2786 23.4353 97.8666 23.356 98.464 23.356C99.612 23.356 100.503 23.6267 101.138 24.168C101.773 24.7093 102.09 25.554 102.09 26.702V31H100.046ZM97.75 31.112C97.162 31.112 96.658 31.014 96.238 30.818C95.818 30.6127 95.496 30.3373 95.272 29.992C95.048 29.6467 94.936 29.2593 94.936 28.83C94.936 28.382 95.0433 27.99 95.258 27.654C95.482 27.318 95.832 27.0567 96.308 26.87C96.784 26.674 97.4046 26.576 98.17 26.576H100.172V27.85H98.408C97.8946 27.85 97.54 27.934 97.344 28.102C97.1573 28.27 97.064 28.48 97.064 28.732C97.064 29.012 97.1713 29.236 97.386 29.404C97.61 29.5627 97.9133 29.642 98.296 29.642C98.66 29.642 98.9866 29.558 99.276 29.39C99.5653 29.2127 99.7753 28.956 99.906 28.62L100.242 29.628C100.083 30.1133 99.794 30.482 99.374 30.734C98.954 30.986 98.4126 31.112 97.75 31.112ZM104.067 31V20.612H106.251V31H104.067ZM106.808 32.4L111.428 19.212H113.374L108.754 32.4H106.808ZM113.914 31V21.2H116.182V29.152H121.096V31H113.914ZM125.752 31.112C124.949 31.112 124.235 30.944 123.61 30.608C122.994 30.272 122.504 29.8147 122.14 29.236C121.785 28.648 121.608 27.9807 121.608 27.234C121.608 26.478 121.785 25.8107 122.14 25.232C122.504 24.644 122.994 24.1867 123.61 23.86C124.235 23.524 124.949 23.356 125.752 23.356C126.545 23.356 127.255 23.524 127.88 23.86C128.505 24.1867 128.995 24.6393 129.35 25.218C129.705 25.7967 129.882 26.4687 129.882 27.234C129.882 27.9807 129.705 28.648 129.35 29.236C128.995 29.8147 128.505 30.272 127.88 30.608C127.255 30.944 126.545 31.112 125.752 31.112ZM125.752 29.32C126.116 29.32 126.443 29.236 126.732 29.068C127.021 28.9 127.25 28.662 127.418 28.354C127.586 28.0367 127.67 27.6633 127.67 27.234C127.67 26.7953 127.586 26.422 127.418 26.114C127.25 25.806 127.021 25.568 126.732 25.4C126.443 25.232 126.116 25.148 125.752 25.148C125.388 25.148 125.061 25.232 124.772 25.4C124.483 25.568 124.249 25.806 124.072 26.114C123.904 26.422 123.82 26.7953 123.82 27.234C123.82 27.6633 123.904 28.0367 124.072 28.354C124.249 28.662 124.483 28.9 124.772 29.068C125.061 29.236 125.388 29.32 125.752 29.32ZM131.342 31V23.468H133.526V31H131.342ZM132.434 22.418C132.033 22.418 131.706 22.3013 131.454 22.068C131.202 21.8347 131.076 21.5453 131.076 21.2C131.076 20.8547 131.202 20.5653 131.454 20.332C131.706 20.0987 132.033 19.982 132.434 19.982C132.835 19.982 133.162 20.094 133.414 20.318C133.666 20.5327 133.792 20.8127 133.792 21.158C133.792 21.522 133.666 21.8253 133.414 22.068C133.171 22.3013 132.845 22.418 132.434 22.418ZM138.633 31.112C137.746 31.112 137.056 30.888 136.561 30.44C136.066 29.9827 135.819 29.306 135.819 28.41V21.802H138.003V28.382C138.003 28.6993 138.087 28.9467 138.255 29.124C138.423 29.292 138.652 29.376 138.941 29.376C139.286 29.376 139.58 29.2827 139.823 29.096L140.411 30.636C140.187 30.7947 139.916 30.916 139.599 31C139.291 31.0747 138.969 31.112 138.633 31.112ZM134.657 25.316V23.636H139.879V25.316H134.657ZM141.119 31V29.684L145.571 24.42L145.949 25.148H141.217V23.468H147.713V24.784L143.261 30.048L142.869 29.32H147.839V31H141.119Z" fill="#10B981"/>
</svg>
